<svg width="21" height="16" viewBox="0 0 21 16" fill="none" xmlns="http://www.w3.org/2000/svg">
<path d="M16.1259 0.5C17.2737 0.499842 18.3757 0.950813 19.1941 1.75567C20.0125 2.56053 20.4818 3.65479 20.5009 4.8025C20.6134 5.88375 20.5971 7.47875 19.8659 9.32C19.1184 11.2025 17.6609 13.255 15.0009 15.25C14.8695 15.3485 14.7201 15.4202 14.5611 15.4609C14.4021 15.5016 14.2366 15.5107 14.0741 15.4874C13.7459 15.4406 13.4498 15.2652 13.2509 15C13.052 14.7348 12.9665 14.4014 13.0134 14.0732C13.0603 13.745 13.2357 13.4489 13.5009 13.25C15.4559 11.7838 16.5759 10.3588 17.2171 9.1125C16.6159 9.26689 15.9887 9.29159 15.3773 9.18495C14.7658 9.07831 14.184 8.84277 13.6705 8.49399C13.1571 8.1452 12.7237 7.69116 12.3993 7.16201C12.0748 6.63286 11.8666 6.04073 11.7886 5.42494C11.7106 4.80915 11.7645 4.18381 11.9467 3.59046C12.129 2.99711 12.4354 2.44933 12.8456 1.98351C13.2559 1.51769 13.7605 1.14449 14.3261 0.888714C14.8916 0.632936 15.5052 0.500431 16.1259 0.5ZM4.87587 0.5C6.02374 0.499842 7.12569 0.950813 7.94411 1.75567C8.76253 2.56053 9.23185 3.65479 9.25087 4.8025C9.36337 5.88375 9.34712 7.47875 8.61587 9.32C7.86962 11.2025 6.41087 13.255 3.75087 15.25C3.61955 15.3485 3.47011 15.4202 3.3111 15.4609C3.15208 15.5016 2.9866 15.5107 2.82409 15.4874C2.49591 15.4406 2.19978 15.2652 2.00087 15C1.80196 14.7348 1.71655 14.4014 1.76343 14.0732C1.81032 13.745 1.98565 13.4489 2.25087 13.25C4.20587 11.7838 5.32587 10.3588 5.96712 9.1125C5.36592 9.26689 4.73875 9.29159 4.12726 9.18495C3.51578 9.07831 2.93399 8.84277 2.42054 8.49399C1.9071 8.1452 1.47374 7.69116 1.14927 7.16201C0.824794 6.63286 0.616632 6.04073 0.538608 5.42494C0.460585 4.80915 0.514486 4.18381 0.696732 3.59046C0.878978 2.99711 1.1854 2.44933 1.59563 1.98351C2.00587 1.51769 2.51053 1.14449 3.07609 0.888714C3.64165 0.632936 4.25516 0.500431 4.87587 0.5Z" fill="white"/>
</svg>
