<svg width="35" height="28" viewBox="0 0 35 28" fill="none" xmlns="http://www.w3.org/2000/svg">
<path d="M4.16732 27.3346C3.25065 27.3346 2.46621 27.0085 1.81398 26.3563C1.16065 25.703 0.833984 24.918 0.833984 24.0013V4.0013C0.833984 3.08464 1.16065 2.30019 1.81398 1.64797C2.46621 0.994635 3.25065 0.667969 4.16732 0.667969H30.834C31.7507 0.667969 32.5357 0.994635 33.189 1.64797C33.8412 2.30019 34.1673 3.08464 34.1673 4.0013V24.0013C34.1673 24.918 33.8412 25.703 33.189 26.3563C32.5357 27.0085 31.7507 27.3346 30.834 27.3346H4.16732ZM17.5007 15.3763C17.6395 15.3763 17.7851 15.3552 17.9373 15.313C18.0907 15.2719 18.2368 15.2096 18.3757 15.1263L30.1673 7.7513C30.3895 7.61241 30.5562 7.43908 30.6673 7.2313C30.7784 7.02241 30.834 6.79297 30.834 6.54297C30.834 5.98741 30.5979 5.57075 30.1257 5.29297C29.6534 5.01519 29.1673 5.02908 28.6673 5.33463L17.5007 12.3346L6.33398 5.33463C5.83398 5.02908 5.34787 5.02186 4.87565 5.31297C4.40343 5.60519 4.16732 6.01519 4.16732 6.54297C4.16732 6.82075 4.22287 7.06352 4.33398 7.2713C4.4451 7.48019 4.61176 7.64019 4.83398 7.7513L16.6257 15.1263C16.7645 15.2096 16.9107 15.2719 17.064 15.313C17.2162 15.3552 17.3618 15.3763 17.5007 15.3763Z" fill="#848484"/>
</svg>
