<svg width="35" height="34" viewBox="0 0 35 34" fill="none" xmlns="http://www.w3.org/2000/svg">
<path d="M17.5007 0.332031C22.029 0.332031 22.594 0.348698 24.3707 0.432031C26.1457 0.515364 27.354 0.793698 28.4173 1.20703C29.5173 1.63036 30.444 2.2037 31.3707 3.1287C32.2181 3.96186 32.8739 4.96968 33.2923 6.08203C33.704 7.1437 33.984 8.3537 34.0673 10.1287C34.1457 11.9054 34.1673 12.4704 34.1673 16.9987C34.1673 21.527 34.1507 22.092 34.0673 23.8687C33.984 25.6437 33.704 26.852 33.2923 27.9154C32.8751 29.0283 32.2192 30.0364 31.3707 30.8687C30.5373 31.7159 29.5295 32.3716 28.4173 32.7904C27.3557 33.202 26.1457 33.482 24.3707 33.5654C22.594 33.6437 22.029 33.6654 17.5007 33.6654C12.9723 33.6654 12.4073 33.6487 10.6307 33.5654C8.85565 33.482 7.64732 33.202 6.58398 32.7904C5.47119 32.3728 4.4632 31.7169 3.63065 30.8687C2.783 30.0357 2.1272 29.0278 1.70898 27.9154C1.29565 26.8537 1.01732 25.6437 0.933984 23.8687C0.855651 22.092 0.833984 21.527 0.833984 16.9987C0.833984 12.4704 0.850651 11.9054 0.933984 10.1287C1.01732 8.35203 1.29565 7.14536 1.70898 6.08203C2.12604 4.969 2.78199 3.9609 3.63065 3.1287C4.46344 2.28075 5.47137 1.62491 6.58398 1.20703C7.64732 0.793698 8.85398 0.515364 10.6307 0.432031C12.4073 0.353698 12.9723 0.332031 17.5007 0.332031ZM17.5007 8.66537C15.2905 8.66537 13.1709 9.54334 11.6081 11.1061C10.0453 12.6689 9.16732 14.7886 9.16732 16.9987C9.16732 19.2088 10.0453 21.3285 11.6081 22.8913C13.1709 24.4541 15.2905 25.332 17.5007 25.332C19.7108 25.332 21.8304 24.4541 23.3932 22.8913C24.956 21.3285 25.834 19.2088 25.834 16.9987C25.834 14.7886 24.956 12.6689 23.3932 11.1061C21.8304 9.54334 19.7108 8.66537 17.5007 8.66537ZM28.334 8.2487C28.334 7.69616 28.1145 7.16626 27.7238 6.77556C27.3331 6.38486 26.8032 6.16536 26.2507 6.16536C25.6981 6.16536 25.1682 6.38486 24.7775 6.77556C24.3868 7.16626 24.1673 7.69616 24.1673 8.2487C24.1673 8.80123 24.3868 9.33114 24.7775 9.72184C25.1682 10.1125 25.6981 10.332 26.2507 10.332C26.8032 10.332 27.3331 10.1125 27.7238 9.72184C28.1145 9.33114 28.334 8.80123 28.334 8.2487ZM17.5007 11.9987C18.8267 11.9987 20.0985 12.5255 21.0362 13.4632C21.9739 14.4008 22.5007 15.6726 22.5007 16.9987C22.5007 18.3248 21.9739 19.5966 21.0362 20.5342C20.0985 21.4719 18.8267 21.9987 17.5007 21.9987C16.1746 21.9987 14.9028 21.4719 13.9651 20.5342C13.0274 19.5966 12.5007 18.3248 12.5007 16.9987C12.5007 15.6726 13.0274 14.4008 13.9651 13.4632C14.9028 12.5255 16.1746 11.9987 17.5007 11.9987Z" fill="#848484"/>
</svg>
