<svg width="251" height="329" viewBox="0 0 251 329" fill="none" xmlns="http://www.w3.org/2000/svg">
<path d="M31.75 328.75C23.1562 328.75 15.8021 325.693 9.6875 319.578C3.5625 313.453 0.5 306.094 0.5 297.5V141.25C0.5 132.656 3.5625 125.297 9.6875 119.172C15.8021 113.057 23.1562 110 31.75 110H47.375V78.75C47.375 57.1354 54.9948 38.7083 70.2344 23.4687C85.4635 8.23958 103.885 0.625 125.5 0.625C147.115 0.625 165.542 8.23958 180.781 23.4687C196.01 38.7083 203.625 57.1354 203.625 78.75V110H219.25C227.844 110 235.203 113.057 241.328 119.172C247.443 125.297 250.5 132.656 250.5 141.25V297.5C250.5 306.094 247.443 313.453 241.328 319.578C235.203 325.693 227.844 328.75 219.25 328.75H31.75ZM125.5 250.625C134.094 250.625 141.453 247.568 147.578 241.453C153.693 235.328 156.75 227.969 156.75 219.375C156.75 210.781 153.693 203.422 147.578 197.297C141.453 191.182 134.094 188.125 125.5 188.125C116.906 188.125 109.552 191.182 103.438 197.297C97.3125 203.422 94.25 210.781 94.25 219.375C94.25 227.969 97.3125 235.328 103.438 241.453C109.552 247.568 116.906 250.625 125.5 250.625ZM78.625 110H172.375V78.75C172.375 65.7292 167.818 54.6615 158.703 45.5469C149.589 36.4323 138.521 31.875 125.5 31.875C112.479 31.875 101.411 36.4323 92.2969 45.5469C83.1823 54.6615 78.625 65.7292 78.625 78.75V110Z" fill="white"/>
</svg>
