<svg width="21" height="16" viewBox="0 0 21 16" fill="none" xmlns="http://www.w3.org/2000/svg">
<path d="M6.00028 0.75C6.1316 0.651509 6.28104 0.579848 6.44005 0.539108C6.59907 0.498369 6.76455 0.489348 6.92706 0.512563C7.08956 0.535778 7.2459 0.590772 7.38715 0.674407C7.5284 0.758042 7.65179 0.868678 7.75028 1C7.84877 1.13132 7.92043 1.28076 7.96117 1.43977C8.00191 1.59879 8.01093 1.76427 7.98772 1.92678C7.9645 2.08928 7.90951 2.24562 7.82587 2.38687C7.74224 2.52812 7.6316 2.65151 7.50028 2.75C5.54528 4.21625 4.42528 5.6425 3.78403 6.8875C4.66449 6.66085 5.59369 6.71414 6.44248 7.03994C7.29126 7.36575 8.01746 7.94789 8.52013 8.70545C9.02281 9.46301 9.27699 10.3584 9.24734 11.267C9.21769 12.1757 8.90569 13.0526 8.3547 13.7758C7.80372 14.499 7.04112 15.0325 6.1729 15.3023C5.30468 15.5721 4.37399 15.5647 3.51017 15.2811C2.64635 14.9976 1.89233 14.452 1.35291 13.7201C0.813494 12.9883 0.515475 12.1065 0.500279 11.1975C0.340107 9.66241 0.558117 8.11145 1.13528 6.68C1.88153 4.7975 3.34028 2.745 6.00028 0.75ZM17.2503 0.75C17.3816 0.651509 17.531 0.579848 17.6901 0.539108C17.8491 0.498369 18.0146 0.489348 18.1771 0.512563C18.3396 0.535778 18.4959 0.590772 18.6371 0.674407C18.7784 0.758042 18.9018 0.868678 19.0003 1C19.0988 1.13132 19.1704 1.28076 19.2112 1.43977C19.2519 1.59879 19.2609 1.76427 19.2377 1.92678C19.2145 2.08928 19.1595 2.24562 19.0759 2.38687C18.9922 2.52812 18.8816 2.65151 18.7503 2.75C16.7953 4.21625 15.6753 5.6425 15.034 6.8875C15.9145 6.66085 16.8437 6.71414 17.6925 7.03994C18.5413 7.36575 19.2675 7.94789 19.7701 8.70545C20.2728 9.46301 20.527 10.3584 20.4973 11.267C20.4677 12.1757 20.1557 13.0526 19.6047 13.7758C19.0537 14.499 18.2911 15.0325 17.4229 15.3023C16.5547 15.5721 15.624 15.5647 14.7602 15.2811C13.8964 14.9976 13.1423 14.452 12.6029 13.7201C12.0635 12.9883 11.7655 12.1065 11.7503 11.1975C11.5901 9.66241 11.8081 8.11145 12.3853 6.68C13.1328 4.7975 14.5903 2.745 17.2503 0.75Z" fill="white"/>
</svg>
