<svg width="16" height="16" viewBox="0 0 16 16" fill="none" xmlns="http://www.w3.org/2000/svg">
<path d="M13.0601 4.46C12.3955 4.31386 11.7944 3.96095 11.3428 3.45192C10.8913 2.94289 10.6126 2.30391 10.5468 1.62666V1.33333H8.24676V10.4467C8.24723 10.851 8.12045 11.2453 7.88439 11.5736C7.64833 11.9019 7.31495 12.1477 6.93147 12.276C6.548 12.4043 6.13387 12.4087 5.74775 12.2886C5.36163 12.1685 5.02309 11.9299 4.7801 11.6067C4.5624 11.3206 4.42909 10.9792 4.39525 10.6213C4.36141 10.2634 4.42839 9.90316 4.58862 9.58133C4.74884 9.25949 4.99592 8.9889 5.30191 8.80017C5.60789 8.61143 5.96059 8.51207 6.3201 8.51333C6.51892 8.51219 6.71676 8.54142 6.90676 8.59999V6.26666C6.68565 6.23928 6.46284 6.22814 6.2401 6.23333C5.41964 6.25525 4.62338 6.51595 3.94882 6.98351C3.27426 7.45106 2.75069 8.10518 2.44221 8.86576C2.13374 9.62633 2.05375 10.4604 2.21204 11.2657C2.37033 12.071 2.76004 12.8128 3.33343 13.4C3.92109 13.9975 4.67309 14.4068 5.49389 14.5759C6.31469 14.745 7.16724 14.6663 7.9432 14.3497C8.71917 14.0332 9.38352 13.4931 9.85185 12.7982C10.3202 12.1032 10.5713 11.2847 10.5734 10.4467V5.77999C11.5011 6.44263 12.6134 6.79709 13.7534 6.79333V4.52666C13.5295 4.52759 13.3061 4.50524 13.0868 4.46H13.0601Z" fill="#848484"/>
</svg>
