<svg width="35" height="29" viewBox="0 0 35 29" fill="none" xmlns="http://www.w3.org/2000/svg">
<path d="M34.9331 3.99935C33.6497 4.58268 32.2664 4.96602 30.8331 5.14935C32.2997 4.26602 33.4331 2.86602 33.9664 1.18268C32.5831 2.01602 31.0497 2.59935 29.4331 2.93268C28.1164 1.49935 26.2664 0.666016 24.1664 0.666016C20.2497 0.666016 17.0497 3.86602 17.0497 7.81602C17.0497 8.38268 17.1164 8.93268 17.2331 9.44935C11.2997 9.14935 6.01641 6.29935 2.49974 1.98268C1.88307 3.03268 1.53307 4.26602 1.53307 5.56602C1.53307 8.04935 2.78307 10.2494 4.71641 11.4994C3.53307 11.4994 2.43307 11.166 1.46641 10.666V10.716C1.46641 14.1827 3.93307 17.0827 7.19974 17.7327C6.15095 18.0197 5.0499 18.0596 3.98307 17.8494C4.43575 19.2702 5.3223 20.5134 6.5181 21.4042C7.7139 22.2951 9.15882 22.7888 10.6497 22.816C8.12246 24.8168 4.98973 25.8982 1.76641 25.8827C1.19974 25.8827 0.633073 25.8494 0.0664062 25.7827C3.23307 27.816 6.99974 28.9994 11.0331 28.9994C24.1664 28.9994 31.3831 18.0994 31.3831 8.64935C31.3831 8.33268 31.3831 8.03268 31.3664 7.71602C32.7664 6.71602 33.9664 5.44935 34.9331 3.99935Z" fill="#848484"/>
</svg>
